<svg viewBox="0 0 512 512" fill="none" xmlns="http://www.w3.org/2000/svg" width="512" height="512">
  <defs>
    <linearGradient id="bg" x1="0" y1="0" x2="512" y2="512" gradientUnits="userSpaceOnUse">
      <stop offset="0%" stop-color="#3B82F6" />
      <stop offset="100%" stop-color="#7C3AED" />
    </linearGradient>
  </defs>
  <rect width="512" height="512" rx="112" fill="url(#bg)" />
  <path
    d="M160 128h96c35.2 0 64 28.8 64 64 0 24-12.8 43.2-32 54.4 25.6 9.6 44.8 35.2 44.8 65.6 0 40-32 72-72 72H160V128z
    M208 176v56h40c16 0 27.2-12.8 27.2-28S264 176 248 176H208z
    M208 280V336h48c17.6 0 32-14.4 32-28s-14.4-28-32-28H208z"
    fill="white"
  />
</svg>
